<svg width="118" height="116" viewBox="0 0 118 116" fill="none" xmlns="http://www.w3.org/2000/svg">
<path d="M111.269 46.7968C110.638 45.5708 110.293 44.2358 110.253 42.867L109.908 32.0663C109.851 30.5286 109.051 29.1319 107.751 28.2915L98.5742 22.3703C97.4058 21.6252 96.4305 20.62 95.7037 19.4679L89.9277 10.27C89.1079 8.96673 87.7124 8.14393 86.1565 8.05021L75.2067 7.44972C73.8213 7.3768 72.4775 7.00447 71.251 6.3524L61.5708 1.24988C60.8915 0.885557 60.1341 0.707736 59.3936 0.698817C58.6531 0.689897 57.8916 0.849421 57.2038 1.19727L47.4034 6.06514C46.1616 6.68748 44.809 7.02733 43.4225 7.06686L32.4614 7.40343C30.9037 7.45964 29.4888 8.24859 28.6378 9.53168L22.6419 18.5878C21.8876 19.7409 20.8693 20.7033 19.7023 21.4202L10.3857 27.1187C9.06566 27.9275 8.23252 29.3046 8.13806 30.8404L7.53313 41.6485C7.45969 43.0159 7.08291 44.3422 6.42268 45.5526L1.25633 55.1061C0.518574 56.4468 0.499159 58.0585 1.20441 59.4166L6.13914 69.0917C6.77002 70.3177 7.11474 71.6527 7.15522 73.0213L7.49964 83.8408C7.55708 85.3785 8.35681 86.7753 9.65698 87.6156L10.3353 88.0546L12.7474 89.6023L15.1594 91.1497L18.8339 93.5182C20.0023 94.2629 20.9776 95.2683 21.7043 96.4204L27.4804 105.619C28.3002 106.921 29.6957 107.744 31.2516 107.838L42.2014 108.439C43.5868 108.512 44.9306 108.884 46.157 109.536L46.742 109.843L55.8185 114.638C56.4978 115.003 57.2552 115.181 57.9957 115.19C58.736 115.199 59.4975 115.039 60.1855 114.691L66.6616 111.47L69.9857 109.823C70.2341 109.695 70.4823 109.585 70.7492 109.495C71.7793 109.095 72.8647 108.864 73.9664 108.821L74.2137 108.806L84.9278 108.466C86.4856 108.41 87.9005 107.621 88.7514 106.337L94.7473 97.2815C95.5017 96.1287 96.5198 95.166 97.6868 94.4489L99.7912 93.1622L106.984 88.7694C108.304 87.9603 109.138 86.5835 109.232 85.0476L109.837 74.2396C109.91 72.8721 110.287 71.5459 110.948 70.3355L116.114 60.782C116.852 59.4413 116.871 57.8295 116.166 56.4715L111.269 46.7968Z" fill="#FF0000" stroke="#FF0000" stroke-width="0.716615"/>
</svg>
